#!OML:ASF H:\Pregnant\Project 1\Capture day 1\Session 1\femalepreg.ASF
:FULLY-SPECIFIED
:DEGREES
936
root 5.67602 16.1668 -17.6092 -85.1928 -93.2446 106.111
lowerback -12.9814 0.0555943 -11.0038
upperback -8.66188 0.668258 -2.05799
thorax -2.12518 0.530095 4.07805
lowerneck -23.7914 8.45772 7.79422
upperneck 20.2191 7.9659 3.46223
head 10.6101 4.67442 1.2716
rclavicle -4.37326e-015 -7.95139e-015
rhumerus -50.1037 8.60392 -87.2264
rradius 70.9628
rwrist -7.59234
rhand -4.27847 -14.6577
rfingers 7.12502
rthumb 21.4865 -43.4861
lclavicle -4.37326e-015 -7.95139e-015
lhumerus -34.271 -18.1755 78.1698
lradius 22.9959
lwrist 33.9022
lhand -24.3603 -3.33264
lfingers 7.12502
lthumb 2.12937 26.6365
rfemur -28.0329 15.7544 1.72796
rtibia 26.614
rfoot -8.57492 -11.8829
rtoes -32.9403
lfemur -31.8947 -5.12345 -7.84991
ltibia 24.5527
lfoot -11.3102 3.84753
ltoes -27.8461
937
root 5.66576 16.1489 -17.6934 -81.991 -92.8613 102.672
lowerback -13.0978 0.0979823 -10.9632
upperback -8.6974 0.730434 -1.95186
thorax -2.11103 0.561846 4.17545
lowerneck -23.5163 8.69007 7.96362
upperneck 20.6051 8.3764 2.9957
head 10.7392 4.82121 1.14944
rclavicle -4.52235e-015 2.54444e-014
rhumerus -50.1432 9.1494 -87.3695
rradius 71.4593
rwrist -7.66642
rhand -3.96262 -14.7875
rfingers 7.12502
rthumb 21.7899 -43.5808
lclavicle -4.52235e-015 2.54444e-014
lhumerus -34.4523 -17.0052 77.5968
lradius 22.813
lwrist 33.7086
lhand -24.7559 -3.49987
lfingers 7.12502
lthumb 1.74735 26.4727
rfemur -27.7607 15.6213 1.8748
rtibia 26.6733
rfoot -9.46111 -12.097
rtoes -32.7184
lfemur -31.3657 -4.97768 -7.9822
ltibia 24.3048
lfoot -11.2326 3.87889
ltoes -28.364
938
root 5.65654 16.1325 -17.7774 -77.6107 -92.5026 98.0476
lowerback -13.2218 0.168391 -10.847
upperback -8.707 0.826286 -1.87751
thorax -2.0655 0.604621 4.20143
lowerneck -23.259 8.92511 8.17497
upperneck 20.9726 8.78178 2.51388
head 10.8712 4.96555 1.01508
rclavicle -8.05078e-015 4.77083e-015
rhumerus -50.1148 9.6211 -87.514
rradius 71.8965
rwrist -7.73501
rhand -3.66902 -14.9274
rfingers 7.12502
rthumb 22.0718 -43.6878
lclavicle -8.05078e-015 4.77083e-015
lhumerus -34.5451 -15.7108 76.9493
lradius 22.6106
lwrist 33.482
lhand -25.1914 -3.6528
lfingers 7.12502
lthumb 1.32674 26.3228
rfemur -27.5074 15.4169 2.05607
rtibia 26.7396
rfoot -10.2879 -12.2342
rtoes -32.3138
lfemur -30.8124 -4.86161 -8.09012
ltibia 24.0213
lfoot -11.1203 3.93797
ltoes -28.8719
939
root 5.64853 16.1176 -17.8612 -71.5908 -92.1746 91.7799
lowerback -13.3618 0.27085 -10.6488
upperback -8.68566 0.961647 -1.84522
thorax -1.97843 0.660252 4.14238
lowerneck -23.0282 9.1569 8.42414
upperneck 21.3185 9.17053 2.03084
head 11.0059 5.10383 0.87252
rclavicle 1.48095e-014 2.70347e-014
rhumerus -50.0055 9.99336 -87.6604
rradius 72.2684
rwrist -7.78817
rhand -3.401 -15.0656
rfingers 7.12502
rthumb 22.3291 -43.7954
lclavicle 1.48095e-014 2.70347e-014
lhumerus -34.5581 -14.3568 76.2419
lradius 22.415
lwrist 33.279
lhand -25.7289 -3.7938
lfingers 7.12502
lthumb 0.807598 26.1844
rfemur -27.2794 15.1752 2.25495
rtibia 26.8237
rfoot -11.0598 -12.3269
rtoes -31.8146
lfemur -30.241 -4.74653 -8.1858
ltibia 23.7055
lfoot -10.978 3.99622
ltoes -29.3698
940
root 5.64192 16.1036 -17.9441 -63.6433 -91.8869 83.586
lowerback -13.4941 0.39033 -10.3805
upperback -8.65738 1.11124 -1.83957
thorax -1.88515 0.719213 4.0182
lowerneck -22.7865 9.38358 8.70544
upperneck 21.6458 9.54326 1.55671
head 11.1368 5.23756 0.724715
rclavicle 1.93815e-014 -3.18055e-015
rhumerus -49.8533 10.3179 -87.8182
rradius 72.5799
rwrist -7.84122
rhand -3.17569 -15.2079
rfingers 7.12502
rthumb 22.5453 -43.9115
lclavicle 1.93815e-014 -3.18055e-015
lhumerus -34.5659 -12.9986 75.5243
lradius 22.2522
lwrist 33.1809
lhand -26.3547 -3.92267
lfingers 7.12502
lthumb 0.203202 26.057
rfemur -27.0768 14.9136 2.45404
rtibia 26.9301
rfoot -11.8081 -12.3812
rtoes -31.1932
lfemur -29.6634 -4.7112 -8.2492
ltibia 23.364
lfoot -10.7933 4.12191
ltoes -29.8702
941
root 5.63647 16.0903 -18.0276 -52.1788 -91.6727 71.8766
lowerback -13.6264 0.520022 -10.0895
upperback -8.62467 1.27154 -1.83308
thorax -1.7865 0.782688 3.88401
lowerneck -22.5187 9.61386 9.01503
upperneck 21.9547 9.91889 1.07899
head 11.2622 5.3738 0.57028
rclavicle -1.44119e-014 -3.02153e-014
rhumerus -49.6592 10.6321 -87.9759
rradius 72.8291
rwrist -7.89806
rhand -2.98175 -15.3605
rfingers 7.12502
rthumb 22.7315 -44.0414
lclavicle -1.44119e-014 -3.02153e-014
lhumerus -34.5961 -11.6308 74.8113
lradius 22.1393
lwrist 33.2059
lhand -27.0301 -4.03263
lfingers 7.12502
lthumb -0.449124 25.9466
rfemur -26.9178 14.7121 2.63666
rtibia 27.0606
rfoot -12.5308 -12.4266
rtoes -30.5063
lfemur -29.0669 -4.66868 -8.29723
ltibia 23.0017
lfoot -10.5878 4.26868
ltoes -30.3987
942
root 5.63246 16.0775 -18.1104 -37.3271 -91.5746 56.7793
lowerback -13.7536 0.660314 -9.76969
upperback -8.58748 1.44191 -1.8197
thorax -1.68457 0.850546 3.74272
lowerneck -22.2254 9.84277 9.345
upperneck 22.2482 10.2942 0.594989
head 11.3828 5.51038 0.408936
rclavicle 1.2921e-014 -9.54166e-015
rhumerus -49.424 10.946 -88.1177
rradius 73.0139
rwrist -7.95552
rhand -2.81001 -15.5114
rfingers 7.12502
rthumb 22.8963 -44.172
lclavicle 1.2921e-014 -9.54166e-015
lhumerus -34.6674 -10.3129 74.1392
lradius 22.0939
lwrist 33.4128
lhand -27.7739 -4.14537
lfingers 7.12502
lthumb -1.16758 25.8312
rfemur -26.8 14.5672 2.79872
rtibia 27.2135
rfoot -13.2198 -12.452
rtoes -29.8579
lfemur -28.4479 -4.64813 -8.32515
ltibia 22.6192
lfoot -10.3571 4.46487
ltoes -30.9304
